<svg width="50" height="50" viewBox="0 0 50 50" fill="none" xmlns="http://www.w3.org/2000/svg">
<path d="M25 48.4375C37.9442 48.4375 48.4375 37.9442 48.4375 25C48.4375 12.0558 37.9442 1.5625 25 1.5625C12.0558 1.5625 1.5625 12.0558 1.5625 25C1.5625 37.9442 12.0558 48.4375 25 48.4375Z" fill="#EF5350"/>
<path d="M32.0312 38.8281C27.4999 35.0781 22.4999 35.0781 17.9687 38.8281C17.4218 39.2969 16.9531 38.5156 17.3437 37.8125C18.7499 35.1562 21.4843 32.7344 24.9999 32.7344C28.5155 32.7344 31.328 35.1562 32.6562 37.8125C33.0468 38.4375 32.578 39.2187 32.0312 38.8281Z" fill="#302424"/>
<path d="M7.96869 19.4531C6.79682 23.125 8.43744 27.2656 12.1093 28.9062C15.7031 30.625 19.9218 29.2969 22.0312 26.0156L16.6406 20L7.96869 19.4531" fill="white"/>
<path d="M11.0937 20.1562C9.99994 22.4219 11.0156 25.1562 13.2812 26.1719C15.5468 27.2656 18.2812 26.25 19.2968 23.9844C20.0781 22.5 11.7968 18.6719 11.0937 20.1562" fill="#302424"/>
<path d="M7.96875 19.4531C9.21875 18.6719 10.7031 18.2812 12.1875 18.2812C13.6719 18.2812 15.1563 18.6719 16.5625 19.2969C17.8906 19.9219 19.1406 20.8594 20.1562 21.9531C21.0937 23.125 21.875 24.4531 22.0312 25.9375C21.0156 24.9219 20 24.0625 18.9062 23.2812C17.8125 22.5 16.7187 21.875 15.625 21.4062C14.4531 20.8594 13.2812 20.4688 12.0312 20.0781C10.625 19.8438 9.375 19.6094 7.96875 19.4531Z" fill="#302424"/>
<path d="M42.0313 19.4531C43.2031 23.125 41.5625 27.2656 37.8906 28.9062C34.2969 30.625 30.0781 29.2969 27.9688 26.0156L33.3594 20L42.0313 19.4531Z" fill="white"/>
<path d="M38.9063 20.1562C40.0001 22.4219 38.9844 25.1562 36.7188 26.1719C34.4532 27.2656 31.7188 26.25 30.7032 23.9844C29.9219 22.5 38.2032 18.6719 38.9063 20.1562" fill="#302424"/>
<path d="M42.0312 19.4531C40.7812 18.6719 39.2969 18.2812 37.8125 18.2812C36.3281 18.2812 34.8437 18.6719 33.4375 19.2969C32.1094 19.9219 30.8594 20.8594 29.8438 21.9531C28.9063 23.125 28.125 24.4531 27.9688 25.9375C28.9844 24.9219 30 24.0625 31.0938 23.2812C32.1875 22.5 33.2813 21.875 34.375 21.4062C35.5469 20.8594 36.7187 20.4688 37.9687 20.0781C39.375 19.8438 40.625 19.6094 42.0312 19.4531" fill="#302424"/>
</svg>
