<svg width="149" height="38" fill="none" xmlns="http://www.w3.org/2000/svg"><path d="M47.04 25.892a.463.463 0 01-.34-.14.463.463 0 01-.14-.34v-13.04c0-.147.047-.26.14-.34a.463.463 0 01.34-.14h1.88c.147 0 .26.046.34.14.093.08.14.193.14.34v11.12h6.34c.147 0 .267.046.36.14.093.093.14.206.14.34v1.44a.463.463 0 01-.14.34.487.487 0 01-.36.14h-8.7zm13.921.2c-.68 0-1.307-.134-1.88-.4a3.575 3.575 0 01-1.34-1.12c-.32-.467-.48-.98-.48-1.54 0-.907.367-1.64 1.1-2.2.733-.56 1.74-.94 3.02-1.14l2.74-.4v-.42c0-.574-.147-1.007-.44-1.3-.293-.294-.76-.44-1.4-.44-.44 0-.793.08-1.06.24-.267.16-.487.326-.66.5l-.32.32c-.053.16-.153.24-.3.24h-1.56a.478.478 0 01-.32-.12.433.433 0 01-.12-.32c.013-.334.173-.707.48-1.12.32-.427.807-.794 1.46-1.1.653-.32 1.46-.48 2.42-.48 1.573 0 2.72.353 3.44 1.06.72.706 1.08 1.633 1.08 2.78v6.28a.463.463 0 01-.14.34.423.423 0 01-.34.14h-1.66a.463.463 0 01-.34-.14.463.463 0 01-.14-.34v-.78c-.293.426-.707.78-1.24 1.06-.533.266-1.2.4-2 .4zm.68-1.92c.733 0 1.333-.24 1.8-.72.467-.48.7-1.174.7-2.08v-.4l-2 .32c-1.533.24-2.3.753-2.3 1.54 0 .426.173.76.52 1 .36.226.787.34 1.28.34zm11.705 1.92c-1.013 0-1.86-.154-2.54-.46-.68-.307-1.186-.66-1.52-1.06-.32-.414-.48-.767-.48-1.06 0-.134.04-.24.12-.32.094-.08.2-.12.32-.12h1.64c.107 0 .2.053.28.16.067.053.214.18.44.38.24.2.507.36.8.48.307.106.64.16 1 .16.534 0 .967-.1 1.3-.3.334-.214.5-.514.5-.9 0-.267-.08-.48-.24-.64-.146-.174-.42-.327-.82-.46-.386-.147-.973-.307-1.76-.48-1.133-.24-1.973-.607-2.52-1.1-.533-.494-.8-1.147-.8-1.96a2.6 2.6 0 01.48-1.5c.32-.48.794-.867 1.42-1.16.64-.307 1.4-.46 2.28-.46.907 0 1.687.146 2.34.44.654.28 1.147.62 1.48 1.02.347.4.52.753.52 1.06a.44.44 0 01-.14.32c-.08.08-.18.12-.3.12h-1.5a.4.4 0 01-.34-.16 10.904 10.904 0 01-.46-.36 2.293 2.293 0 00-.68-.44c-.253-.107-.56-.16-.92-.16-.493 0-.873.106-1.14.32-.266.213-.4.493-.4.84 0 .24.06.44.18.6.134.16.394.313.78.46.387.133.967.273 1.74.42 2.4.466 3.6 1.513 3.6 3.14 0 .946-.413 1.713-1.24 2.3-.813.586-1.953.88-3.42.88zm7.204-.2a.463.463 0 01-.34-.14.463.463 0 01-.14-.34v-13.24c0-.147.047-.26.14-.34a.463.463 0 01.34-.14h1.68c.147 0 .26.046.34.14.094.08.14.193.14.34v13.24a.463.463 0 01-.14.34.424.424 0 01-.34.14h-1.68zm9.313.2c-1.493 0-2.68-.427-3.56-1.28-.867-.854-1.327-2.067-1.38-3.64l-.02-.5c0-1.667.433-2.98 1.3-3.94.88-.96 2.093-1.44 3.64-1.44 1.587 0 2.807.48 3.66 1.44.867.96 1.3 2.24 1.3 3.84v.42a.463.463 0 01-.14.34.488.488 0 01-.36.14h-6.64v.16c.027.746.227 1.366.6 1.86.387.48.913.72 1.58.72.76 0 1.38-.307 1.86-.92.12-.147.213-.234.28-.26.067-.04.18-.06.34-.06h1.76c.12 0 .22.033.3.1.093.066.14.16.14.28 0 .32-.193.7-.58 1.14-.373.426-.913.8-1.62 1.12-.707.32-1.527.48-2.46.48zm2.18-6.32v-.04c0-.787-.2-1.414-.6-1.88-.387-.48-.92-.72-1.6-.72s-1.213.24-1.6.72c-.387.466-.58 1.093-.58 1.88v.04h4.38zm8.842 6.32c-1.013 0-1.86-.154-2.54-.46-.68-.307-1.186-.66-1.52-1.06-.32-.414-.48-.767-.48-1.06 0-.134.04-.24.12-.32.094-.08.2-.12.32-.12h1.64c.107 0 .2.053.28.16.067.053.214.18.44.38.24.2.507.36.8.48.307.106.64.16 1 .16.534 0 .967-.1 1.3-.3.334-.214.5-.514.5-.9 0-.267-.08-.48-.24-.64-.146-.174-.42-.327-.82-.46-.386-.147-.973-.307-1.76-.48-1.133-.24-1.973-.607-2.52-1.1-.533-.494-.8-1.147-.8-1.96a2.6 2.6 0 01.48-1.5c.32-.48.794-.867 1.42-1.16.64-.307 1.4-.46 2.28-.46.907 0 1.687.146 2.34.44.654.28 1.147.62 1.48 1.02.347.4.52.753.52 1.06 0 .12-.046.226-.14.32-.08.08-.18.12-.3.12h-1.5a.4.4 0 01-.34-.16 11.615 11.615 0 01-.46-.36 2.284 2.284 0 00-.68-.44c-.253-.107-.56-.16-.92-.16-.493 0-.873.106-1.14.32-.266.213-.4.493-.4.84 0 .24.06.44.18.6.134.16.394.313.78.46.387.133.967.273 1.74.42 2.4.466 3.6 1.513 3.6 3.14 0 .946-.413 1.713-1.24 2.3-.813.586-1.953.88-3.42.88zm10.745-.2a.926.926 0 01-.56-.16.953.953 0 01-.28-.44l-4.04-12.8-.04-.18c0-.107.04-.2.12-.28a.44.44 0 01.32-.14h2.62c.2 0 .36.06.48.18.133.106.22.226.26.36l2.72 9.04 2.74-9.04a.773.773 0 01.24-.38c.133-.107.3-.16.5-.16h2.62c.12 0 .22.046.3.14.08.08.12.173.12.28a.76.76 0 01-.02.18l-4.06 12.8a.79.79 0 01-.28.44c-.134.106-.314.16-.54.16h-3.22zm10.445 0a.534.534 0 01-.36-.14.534.534 0 01-.14-.36v-12.98c0-.147.047-.267.14-.36a.455.455 0 01.36-.16h5.66c1.733 0 3.093.393 4.08 1.18.987.786 1.48 1.94 1.48 3.46s-.493 2.66-1.48 3.42c-.987.746-2.347 1.12-4.08 1.12h-2.28v4.32a.534.534 0 01-.14.36.486.486 0 01-.36.14h-2.88zm5.56-7.68c.547 0 .973-.14 1.28-.42.32-.294.48-.72.48-1.28 0-.52-.147-.94-.44-1.26-.28-.32-.72-.48-1.32-.48h-2.24v3.44h2.24zm8.014 7.68a.534.534 0 01-.36-.14.534.534 0 01-.14-.36v-12.98c0-.147.047-.267.14-.36a.455.455 0 01.36-.16h2.26c.307 0 .533.126.68.38l4.72 7.46v-7.32c0-.147.047-.267.14-.36a.455.455 0 01.36-.16h2.54c.147 0 .267.053.36.16.093.093.14.213.14.36v12.96a.56.56 0 01-.14.38.486.486 0 01-.36.14h-2.26c-.307 0-.533-.127-.68-.38l-4.7-7.16v7.04a.455.455 0 01-.16.36.486.486 0 01-.36.14h-2.54z" fill="#0B132A"/><path d="M31.147 14.423l-.021-.022a.013.013 0 01-.005-.004L17.502.775 3.88 14.396l-.004.005-.023.022a13.245 13.245 0 0013.283 22c.238-.073.492-.073.73 0a13.243 13.243 0 0017.04-14.242 13.246 13.246 0 00-3.759-7.758zM8.723 23.405a.715.715 0 00-.209.505 13.219 13.219 0 001.965 6.802.258.258 0 01-.317.376A7.947 7.947 0 017.619 18.15L17.5 8.268l9.882 9.882a7.945 7.945 0 01-.007 11.23 7.922 7.922 0 01-2.536 1.708.26.26 0 01-.318-.376 13.22 13.22 0 001.966-6.802.713.713 0 00-.21-.505l-4.674-4.958a.26.26 0 00-.391.326c1.815 3.285.254 8.004-2.35 10.608l-.013.014a1.918 1.918 0 01-2.7-.001l-.012-.013c-2.604-2.604-4.164-7.322-2.349-10.607a.258.258 0 00-.39-.326l-4.676 4.957z" fill="#F53838"/></svg>